<svg xmlns="http://www.w3.org/2000/svg" viewBox="0 0 24 24" fill="currentColor" aria-hidden="true" focusable="false"><path d="M12 2a10 10 0 0 0-3.6 19.3c-.1-.8-.2-2.1 0-3 .2-.8 1.3-5.2 1.3-5.2s-.3-.7-.3-1.7c0-1.6 1-2.8 2.1-2.8 1 0 1.5.7 1.5 1.6 0 1-.6 2.5-1 3.8-.2 1.1.6 2 1.6 2 2 0 3.4-2.5 3.4-5.6 0-2.3-1.5-4-4.4-4a5 5 0 0 0-5.2 5c0 1 .4 2 .9 2.6a.4.4 0 0 1 .1.4l-.3 1.2c-.1.2-.2.3-.5.2-1.6-.8-2.6-3-2.6-5 0-4 3-7.8 8.5-7.8 4.4 0 7.9 3.2 7.9 7.4 0 4.4-2.8 8-6.6 8a3.5 3.5 0 0 1-3-1.5l-.8 3.2c-.3 1.2-1.1 2.6-1.6 3.5A10 10 0 1 0 12 2z"/></svg>
